# xmcd
#
# Track frame offsets:
#	187
#	17252
#	33275
#	58285
#	80250
#	99792
#	119615
#	142577
#	165355
#	177612
#	195540
#	219330
#
# Disc length: 3227 seconds
# Revision: 0
# Processed by: cddbd v1.5.2PL0 Copyright (c) Steve Scherf et al.
# Submitted via: dBpowerAMP V12.0
#
DISCID=8f0c990c
DTITLE=Various Artist - Luck Of The Draw
DYEAR=1991
DGENRE=Blues
TTITLE0=Bonnie Raitt - Something To Talk About
TTITLE1=Bonnie Raitt and Delbert McClinton - Good Man, Good Woman
TTITLE2=Bonnie Raitt - I Can't Make You Love Me
TTITLE3=Bonnie Raitt - Tangled and Dark
TTITLE4=Bonnie Raitt - Come To Me
TTITLE5=Bonnie Raitt - No Business
TTITLE6=Bonnie Raitt - One Part Be My Lover
TTITLE7=Bonnie Raitt - Not The Only One
TTITLE8=Bonnie Raitt - Papa Come Quick (Jody and Chico)
TTITLE9=Bonnie Raitt - Slow Ride
TTITLE10=Bonnie Raitt - Luck Of The Draw
TTITLE11=Bonnie Raitt - All At Once
EXTD=
EXTT0=
EXTT1=
EXTT2=
EXTT3=
EXTT4=
EXTT5=
EXTT6=
EXTT7=
EXTT8=
EXTT9=
EXTT10=
EXTT11=
PLAYORDER=
